<svg width="24" height="24" viewBox="0 0 24 24" fill="none" xmlns="http://www.w3.org/2000/svg">
<path d="M19.6215 7.24316C19.0489 7.49643 18.4417 7.66277 17.82 7.73666C18.4753 7.34474 18.9658 6.72792 19.2 6.00116C18.585 6.36716 17.9108 6.62366 17.208 6.76241C16.736 6.25735 16.1103 5.92238 15.4282 5.8096C14.7462 5.69682 14.046 5.81253 13.4365 6.13875C12.827 6.46497 12.3423 6.98342 12.0578 7.61351C11.7734 8.24359 11.7051 8.95 11.8635 9.62291C10.6163 9.5604 9.39623 9.2363 8.28244 8.67166C7.16866 8.10702 6.18607 7.31445 5.39848 6.34541C5.1197 6.82425 4.9732 7.36858 4.97398 7.92266C4.97398 9.01016 5.52748 9.97091 6.36898 10.5334C5.87099 10.5177 5.38395 10.3832 4.94848 10.1411V10.1801C4.94863 10.9044 5.19926 11.6063 5.65786 12.1669C6.11647 12.7275 6.75484 13.1122 7.46473 13.2559C7.00244 13.3811 6.51771 13.3996 6.04723 13.3099C6.24738 13.9333 6.63748 14.4785 7.16292 14.8692C7.68836 15.2599 8.32283 15.4765 8.97748 15.4886C8.32684 15.9996 7.58186 16.3774 6.78514 16.6003C5.98842 16.8231 5.15557 16.8868 4.33423 16.7876C5.768 17.7097 7.43705 18.1992 9.14173 18.1976C14.9115 18.1976 18.0668 13.4179 18.0668 9.27266C18.0668 9.13766 18.063 9.00116 18.057 8.86766C18.6712 8.42379 19.2012 7.87393 19.6223 7.24391L19.6215 7.24316Z" fill="#BDB8AD"/>
</svg>
